<?xml version="1.0" encoding="UTF-8" standalone="no" ?>
<!DOCTYPE svg PUBLIC "-//W3C//DTD SVG 1.1//EN" "http://www.w3.org/Graphics/SVG/1.1/DTD/svg11.dtd">
<svg xmlns="http://www.w3.org/2000/svg" xmlns:xlink="http://www.w3.org/1999/xlink" version="1.1" width="1280" height="1024" viewBox="0 0 1280 1024" xml:space="preserve">
<desc>Created with Fabric.js 5.3.0</desc>
<defs>
</defs>
<g transform="matrix(1 0 0 1 640 512)" id="background-logo"  >
<rect style="stroke: none; stroke-width: 0; stroke-dasharray: none; stroke-linecap: butt; stroke-dashoffset: 0; stroke-linejoin: miter; stroke-miterlimit: 4; fill: rgb(188,188,188); fill-rule: nonzero; opacity: 1;"  paint-order="stroke"  x="-640" y="-512" rx="0" ry="0" width="1280" height="1024" />
</g>
<g transform="matrix(1.9211538461538462 0 0 1.9211538461538462 638.4888709102473 875.8206556911223)" id="text-logo"  >
<g style=""  paint-order="stroke"   >
		<g transform="matrix(1 0 0 1 0 0)" id="text-logo-path-0"  >
<path style="stroke: rgb(255,255,255); stroke-width: 0; stroke-dasharray: none; stroke-linecap: butt; stroke-dashoffset: 0; stroke-linejoin: miter; stroke-miterlimit: 4; fill: rgb(0,0,0); fill-rule: nonzero; opacity: 1;"  paint-order="stroke"  transform=" translate(-308.955, 14.75)" d="M 11.68 -29.5 L 11.68 -4.9 L 2.48 -4.9 L 2.48 0 L 17.23 0 L 17.23 -29.5 Z M 33.93 -29.5 L 33.93 0 L 53.57 0 L 53.57 -29.5 Z M 39.41 -24.6 L 48.09 -24.6 L 48.09 -4.9 L 39.41 -4.9 Z M 70.27 -29.5 L 70.27 0 L 89.92 0 L 89.92 -12.27 L 87.44 -14.75 L 89.92 -17.23 L 89.92 -29.5 Z M 75.76 -24.6 L 84.43 -24.6 L 84.43 -17.23 L 75.76 -17.23 Z M 75.76 -12.27 L 84.43 -12.27 L 84.43 -4.9 L 75.76 -4.9 Z M 128.21 -29.5 L 128.21 0 L 147.85 0 L 147.85 -12.27 L 145.38 -14.75 L 147.85 -17.23 L 147.85 -29.5 Z M 133.69 -24.6 L 142.37 -24.6 L 142.37 -17.23 L 133.69 -17.23 Z M 133.69 -12.27 L 142.37 -12.27 L 142.37 -4.9 L 133.69 -4.9 Z M 164.55 -29.5 L 164.55 0 L 184.2 0 L 184.2 -29.5 Z M 170.04 -24.6 L 178.71 -24.6 L 178.71 -4.9 L 170.04 -4.9 Z M 200.9 -29.5 L 200.9 0 L 206.38 0 L 206.38 -12.27 L 215.06 -12.27 L 215.06 0 L 220.54 0 L 220.54 -29.5 Z M 206.38 -24.6 L 215.06 -24.6 L 215.06 -17.23 L 206.38 -17.23 Z M 237.24 -29.5 L 237.24 0 L 242.73 0 L 242.73 -12.27 L 245.68 -12.27 L 251.1 0 L 256.89 0 L 251.46 -12.27 L 256.89 -12.27 L 256.89 -29.5 Z M 242.73 -24.6 L 251.4 -24.6 L 251.4 -17.23 L 242.73 -17.23 Z M 273.58 -29.5 L 273.58 0 L 289.51 0 L 293.23 -3.66 L 293.23 -25.84 L 289.51 -29.5 Z M 279.07 -24.6 L 287.74 -24.6 L 287.74 -4.9 L 279.07 -4.9 Z M 331.52 -29.5 L 331.52 0 L 337.01 0 L 337.01 -12.27 L 351.17 -12.27 L 351.17 -29.5 Z M 337.01 -24.6 L 345.68 -24.6 L 345.68 -17.23 L 337.01 -17.23 Z M 367.87 -29.5 L 367.87 0 L 387.51 0 L 387.51 -4.9 L 373.35 -4.9 L 373.35 -29.5 Z M 404.21 -29.5 L 404.21 0 L 409.7 0 L 409.7 -12.27 L 418.37 -12.27 L 418.37 0 L 423.86 0 L 423.86 -29.5 Z M 409.7 -24.6 L 418.37 -24.6 L 418.37 -17.23 L 409.7 -17.23 Z M 440.55 -29.5 L 440.55 -24.6 L 447.63 -24.6 L 447.63 0 L 453.12 0 L 453.12 -24.6 L 460.2 -24.6 L 460.2 -29.5 Z M 476.9 -29.5 L 476.9 0 L 482.38 0 L 482.38 -12.27 L 491.65 -12.27 L 491.65 -17.23 L 482.38 -17.23 L 482.38 -24.6 L 496.54 -24.6 L 496.54 -29.5 Z M 513.24 -29.5 L 513.24 0 L 532.89 0 L 532.89 -29.5 Z M 518.73 -24.6 L 527.4 -24.6 L 527.4 -4.9 L 518.73 -4.9 Z M 549.58 -29.5 L 549.58 0 L 555.07 0 L 555.07 -12.27 L 558.02 -12.27 L 563.45 0 L 569.23 0 L 563.8 -12.27 L 569.23 -12.27 L 569.23 -29.5 Z M 555.07 -24.6 L 563.75 -24.6 L 563.75 -17.23 L 555.07 -17.23 Z M 585.93 -29.5 L 585.93 0 L 591.42 0 L 591.42 -22.13 L 597.91 0 L 603.1 0 L 603.39 0 L 609.88 -22.13 L 609.88 0 L 615.43 0 L 615.43 -29.5 L 606.81 -29.5 L 600.68 -8.26 L 594.54 -29.5 Z" stroke-linecap="round" />
</g>
</g>
</g>
<g transform="matrix(1.9211538461538462 0 0 1.9211538461538462 639.4830721466587 397.79261296913415)" id="shape-c8a7fe93-3e49-4315-9fab-3a64fb1af970"  >
<g style=""  paint-order="stroke"   >
		<g transform="matrix(1 0 0 1 -7.657388496221927 17.867795946123422)" id="path-17"  >
<polygon style="stroke: none; stroke-width: 0; stroke-dasharray: none; stroke-linecap: butt; stroke-dashoffset: 0; stroke-linejoin: miter; stroke-miterlimit: 4; fill: rgb(161,191,178); fill-rule: nonzero; opacity: 1;"  paint-order="stroke"  points="90.32495150000001,-109.904022 90.32495150000001,49.933441000000016 81.93273950000001,55.505829000000006 69.2606205,63.914826000000005 66.1723635,65.97934000000001 14.342285500000003,100.38729900000001 0.008422500000008881,109.904022 -3.0966794999999934,107.839447 -34.2149655,87.177887 -34.38281249999999,87.07724000000002 -57.2094725,71.92099000000002 -60.0458985,70.041168 -82.1175535,55.38833600000001 -90.3249515,49.933441000000016 -90.3249515,-109.904022 90.32495150000001,-109.904022 " />
</g>
		<g transform="matrix(1 0 0 1 32.6623125037781 -19.46708805387656)" id="path-16"  >
<path style="stroke: none; stroke-width: 0; stroke-dasharray: none; stroke-linecap: butt; stroke-dashoffset: 0; stroke-linejoin: miter; stroke-miterlimit: 4; fill: rgb(239,235,217); fill-rule: nonzero; opacity: 1;"  paint-order="stroke"  transform=" translate(-133.70711350000002, -108.30473)" d="M 110.574668 72.123135 L 130.240439 77.128994 L 133.12825600000002 72.123135 L 140.23165000000003 80.427121 L 158.81673300000003 104.152737 L 152.09456500000002 144.486325 L 120.85579500000001 102.175626 C 120.85579500000001 102.175626 120.06490100000002 91.10366599999999 115.31978400000001 84.77685299999999 C 110.57454500000001 78.45003999999999 108.59749400000001 77.65914699999999 108.59749400000001 77.65914699999999 L 110.574667 72.12313599999999 Z" stroke-linecap="round" />
</g>
		<g transform="matrix(1 0 0 1 42.18636100377809 -11.24739205387656)" id="path-15"  >
<polygon style="stroke: none; stroke-width: 0; stroke-dasharray: none; stroke-linecap: butt; stroke-dashoffset: 0; stroke-linejoin: miter; stroke-miterlimit: 4; fill: rgb(158,77,77); fill-rule: nonzero; opacity: 1;"  paint-order="stroke"  points="-12.876587,-23.193894 -9.524047000000024,-33.271225 -2.159423000000004,-26.712967000000006 -1.3596190000000092,-19.67482000000001 12.876587,11.516921999999994 10.317382999999978,33.27122499999999 -1.8394770000000165,14.236250999999982 -6.4782710000000066,-18.075242000000003 -12.876587,-23.193894 " />
</g>
		<g transform="matrix(1 0 0 1 75.30776050377808 97.84524344612343)" id="path-14"  >
<path style="stroke: none; stroke-width: 0; stroke-dasharray: none; stroke-linecap: butt; stroke-dashoffset: 0; stroke-linejoin: miter; stroke-miterlimit: 4; fill: rgb(53,50,48); fill-rule: nonzero; opacity: 1;"  paint-order="stroke"  transform=" translate(-176.3525615, -225.6170615)" d="M 176.730186 225.600277 L 176.730186 225.633846 L 175.974937 225.633846 C 176.377769 225.633846 176.64620200000002 225.617061 176.730186 225.600277 Z" stroke-linecap="round" />
</g>
		<g transform="matrix(1 0 0 1 34.36623641863643 32.663205946123426)" id="path-13"  >
<path style="stroke: none; stroke-width: 0; stroke-dasharray: none; stroke-linecap: butt; stroke-dashoffset: 0; stroke-linejoin: miter; stroke-miterlimit: 4; fill: rgb(53,50,48); fill-rule: nonzero; opacity: 1;"  paint-order="stroke"  transform=" translate(-135.41103741485836, -160.435024)" d="M 201.671714 171.487484 L 201.65486800000002 171.52111399999998 C 200.93306600000003 174.172969 199.30501400000003 176.00249799999997 196.955405 177.44591899999998 C 193.95101000000003 179.30907799999997 188.529624 179.79577299999997 183.712363 179.79577299999997 C 178.526206 179.79577299999997 174.061362 179.24187899999995 174.061362 179.24187899999995 L 174.061362 179.30907899999997 L 175.320151 201.14544399999997 L 162.648032 209.55444099999997 L 159.559775 211.61895499999997 L 107.729697 246.02691399999998 C 107.511435 234.98278599999998 107.393882 231.55871299999998 107.393882 231.55871299999998 L 106.605064 231.10558799999998 L 100.42855 227.4801 L 100.378135 227.463315 L 101.721031 178.033444 L 101.771202 176.203915 C 101.771202 176.203915 99.454918 172.528134 95.846397 166.133297 L 95.812828 166.049404 C 95.309288 165.159786 94.78878 164.21984500000002 94.25179299999999 163.22964100000002 C 90.911705 157.170498 86.74923 149.24822600000002 82.41890699999999 140.067226 C 82.35176799999999 139.916133 82.26778399999999 139.765041 82.20052299999999 139.61404000000002 C 81.74739799999999 138.640499 81.29427299999999 137.68377300000003 80.84114799999999 136.743862 C 78.826866 132.430263 76.91365799999998 128.33489600000001 75.25203699999999 124.508114 C 74.98335999999999 123.903896 74.71480599999998 123.299587 74.479942 122.69537000000001 C 70.887901 114.33678800000001 68.588707 107.47195100000002 68.739463 102.95693600000001 C 68.773032 101.76531600000001 68.974692 100.75820600000002 69.377525 99.90218700000001 C 69.797081 98.99584500000002 70.43465400000001 98.29095000000001 71.324302 97.804134 C 71.626548 97.636318 71.96236400000001 97.451717 72.34835 97.23351600000001 C 73.237754 96.76351500000001 74.311973 96.20968200000002 75.537193 95.57189500000001 C 77.266075 94.68227700000001 79.296837 93.64162800000001 81.46212 92.53393100000001 C 91.482384 87.43139200000002 104.809044 80.66735400000002 108.602257 77.64620500000001 L 108.602257 77.66289800000001 L 108.669518 77.69649800000002 C 109.005089 78.01540700000002 110.683556 79.54284200000002 113.16780899999999 82.06048100000002 L 113.21798 82.11080400000003 C 119.680138 88.69024100000003 131.54683699999998 101.86602300000003 139.485802 117.40835000000003 L 139.485802 117.42504300000003 C 140.039635 118.49926200000003 140.559777 119.57351100000002 141.06343900000002 120.66451400000003 C 150.74800900000002 141.577783 151.93966 144.12902200000002 152.074059 144.44793100000004 L 152.090905 144.46474600000005 L 152.107629 144.48153100000005 C 152.107629 144.48153100000005 152.191491 143.99471500000004 152.325647 143.08840400000005 C 152.359216 142.97091100000006 152.376062 142.83660300000005 152.392908 142.68560200000005 L 152.392908 142.63518700000006 C 152.879724 139.22802100000007 153.78609600000001 131.45684200000005 153.517298 122.37645900000005 L 153.517298 122.35964400000006 C 153.316126 115.93133000000006 152.527308 108.86507600000006 150.58004200000002 102.23522400000006 C 147.76034 92.61782300000006 144.00069600000003 85.78658500000006 140.94576500000002 81.35546300000006 L 140.87887000000003 81.25478600000005 C 137.97493900000003 77.10909500000005 135.70931400000003 75.07815000000005 135.45723900000004 74.84313400000005 L 168.87520800000004 91.61080400000004 C 170.68770800000004 92.51711500000005 172.13131200000004 94.01095000000005 172.97054500000004 95.87398800000004 C 175.00130700000005 100.37218700000004 179.21419700000004 109.73788000000005 183.71236600000003 119.82531200000004 C 188.54647200000002 130.65114800000003 193.73275200000003 142.33309400000005 196.95540800000003 149.80214900000004 C 201.57113100000004 160.52736900000005 202.86348900000004 167.12362100000004 201.67171700000003 171.48748200000006 Z" stroke-linecap="round" />
</g>
		<g transform="matrix(1 0 0 1 36.888265003778066 28.299816974852902)" id="path-12"  >
<path style="stroke: none; stroke-width: 0; stroke-dasharray: none; stroke-linecap: butt; stroke-dashoffset: 0; stroke-linejoin: miter; stroke-miterlimit: 4; fill: rgb(2,2,2); fill-rule: nonzero; opacity: 1;"  paint-order="stroke"  transform=" translate(-137.933066, -156.07163502872947)" d="M 125.873496 124.239498 C 112.647666 109.36858699999999 104.137778 97.317409 104.137778 97.317409 L 110.11312 93.775936 L 108.602256 79.727444 L 107.39388199999999 93.07104100000001 L 99.421348 98.02233500000001 C 99.421348 98.02233500000001 104.372886 107.47195 116.42403399999999 120.46300900000001 C 128.105919 133.051296 145.07491299999998 147.183804 146.132286 148.03982200000002 C 145.51107 147.23409700000002 138.478599 138.422299 125.87349699999999 124.23949900000002 Z M 161.77523 96.142483 C 161.77523 96.142483 161.540245 106.767025 160.348594 120.698025 C 159.173789 134.629025 158.821372 141.477078 158.821372 141.477078 L 160.298179 140.067227 L 164.141929 99.684079 L 161.77523 96.142484 Z M 201.654868 171.521114 C 201.453452 171.9071 199.808677 174.97869500000002 195.965049 176.019283 C 192.289268 177.02630200000002 189.553428 175.280819 183.71236299999998 172.47784000000001 C 183.07466799999997 172.17571600000002 182.403281 171.856807 181.69832499999998 171.521114 C 174.74971699999998 168.298458 163.95735799999997 171.269283 163.084433 171.521114 C 169.17720599999998 167.442531 173.776083 164.21984400000002 174.93416399999998 163.39742600000002 C 171.00667399999998 165.83120300000002 128.52559499999998 191.99804200000003 119.49532099999999 191.54485600000004 C 110.196981 191.09160900000003 95.17488599999999 164.08565800000002 94.70503799999999 163.24642500000004 C 94.755209 163.41424100000003 95.14143899999999 164.43807500000005 95.81282599999999 166.04940400000004 L 95.84639499999999 166.13329700000003 C 97.02132199999998 168.93627600000002 99.05208299999998 173.43456700000002 101.72102899999999 178.03344300000003 C 106.92390999999999 186.97942700000004 114.56087299999999 196.31151900000003 123.05379299999998 194.38140400000003 C 128.49190299999998 193.15618400000002 140.57662 186.03954600000003 151.72139599999997 178.92296900000002 C 151.72139599999997 178.92296900000002 151.77181099999996 187.24804200000003 154.47408199999998 197.67107700000003 C 154.50765099999998 197.57036900000003 154.54134299999998 197.53686100000002 154.54134299999998 197.53686100000002 L 155.632163 201.12878 C 155.632163 201.12878 155.598472 201.246151 155.531577 201.430843 C 156.572104 204.75414600000002 157.881431 208.211727 159.559775 211.618953 L 162.648032 209.554439 C 158.032431 200.188716 154.289511 188.154354 153.383139 177.865535 C 154.675497 177.026302 155.934286 176.203914 157.193198 175.398311 C 157.193198 175.398311 165.316733 177.58025700000002 174.061362 179.309078 C 177.317588 179.963619 180.674521 180.551082 183.712363 180.93713 C 187.15315900000002 181.37353099999999 190.191245 181.558102 192.28926700000002 181.306332 C 201.21846600000003 180.164975 201.671713 171.487484 201.671713 171.487484 L 201.65486700000002 171.52111399999998 Z M 154.541343 197.536861 C 154.541343 197.536861 154.507652 197.570369 154.474082 197.671077 C 154.79293 198.896419 155.14546900000002 200.155208 155.531577 201.430843 C 155.598472 201.246151 155.632163 201.12878 155.632163 201.12878 L 154.54134299999998 197.53686100000002 Z M 154.541343 197.536861 C 154.541343 197.536861 154.507652 197.570369 154.474082 197.671077 C 153.534141 199.29919 143.916709 216.184261 134.416831 222.981929 C 121.962852 231.844112 101.68733900000001 227.748714 100.42855 227.480098 L 100.378135 227.463313 L 100.361289 227.463313 C 100.361289 227.463313 102.425742 229.628535 106.605063 231.105586 C 112.345419 233.119746 122.097006 233.80785699999998 135.977744 225.650691 C 150.261191 217.22491 154.876914 203.596003 155.531577 201.43084199999998 C 155.598472 201.24614999999997 155.632163 201.12877899999998 155.632163 201.12877899999998 L 154.54134299999998 197.53686 Z M 109.710288 127.764278 C 104.17147 120.597316 94.621177 111.164516 79.884482 105.323604 C 79.615927 105.222896 79.347251 105.12218800000001 79.07894 105.02148 C 77.517905 104.417171 75.88960900000001 103.863368 74.194419 103.34304399999999 C 74.194419 103.34304399999999 76.00716299999999 104.35006299999999 78.72627899999999 105.99489899999999 C 78.994834 106.16280699999999 79.28011199999999 106.33062299999999 79.56551199999998 106.49853099999999 C 86.06099499999999 110.45959099999999 96.75264599999998 117.40835199999998 101.75459899999998 123.13177099999999 C 104.54060999999999 126.32085799999999 106.84004799999998 129.459499 108.63594699999999 132.14495499999998 C 111.48934099999998 136.49215299999997 112.99996099999998 139.614041 113.10066899999998 139.79864199999997 L 113.10066899999998 139.81542699999997 L 115.92049299999998 141.47707899999997 L 115.92049299999998 137.59988199999998 C 115.92049299999998 137.59988199999998 114.04048799999998 133.370207 109.71028799999998 127.76427999999999 Z M 193.732749 151.463772 C 190.392661 148.106899 186.14620100000002 146.495571 186.14620100000002 146.495571 C 185.81038600000002 144.49822600000002 185.122397 142.081295 183.712363 139.815426 C 183.47750000000002 139.412624 183.208945 139.043301 182.92354500000002 138.657314 C 177.284141 131.20504300000002 170.973228 133.789791 170.973228 133.789791 L 169.68087 102.419826 C 169.68087 102.419826 169.059654 104.853572 168.908653 115.20959 C 168.774376 125.565517 168.153404 136.693568 168.153404 136.693568 C 174.934166 134.243006 180.573814 140.839259 183.712364 145.824275 C 185.441124 148.576808 186.414757 150.842769 186.414757 150.842769 C 186.414757 150.842769 189.62044500000002 150.691676 193.279503 154.33394900000002 C 196.703453 157.77471400000002 198.39864400000002 159.58745900000002 198.600304 159.80556800000002 C 198.499474 159.45315100000002 196.955407 154.68636600000002 193.73274999999998 151.463771 Z" stroke-linecap="round" />
</g>
		<g transform="matrix(1 0 0 1 20.297629502782293 -43.06268291452359)" id="path-11"  >
<path style="stroke: none; stroke-width: 0; stroke-dasharray: none; stroke-linecap: butt; stroke-dashoffset: 0; stroke-linejoin: miter; stroke-miterlimit: 4; fill: rgb(230,192,159); fill-rule: nonzero; opacity: 1;"  paint-order="stroke"  transform=" translate(-121.34243049900422, -84.70913513935298)" d="M 143.631309 12.689938 C 143.631309 12.689938 146.687583 15.747128 147.48958499999998 35.59866 C 147.88326199999997 45.343197 146.609458 51.130642 143.23116199999998 58.77966000000001 C 138.99227 68.377103 133.707114 66.223996 133.707114 66.223996 L 133.02095699999998 73.217191 L 132.056357 79.728116 L 110.57466799999999 72.123166 C 110.57466799999999 72.123166 111.18221199999999 60.195370999999994 108.597495 55.131375 C 106.012778 50.067349 104.565879 47.414761 104.565879 47.414761 C 104.565879 47.414761 93.42147 43.584195 95.350669 29.838986 C 97.279746 16.093777 129.162681 -1.0552710000000012 143.631309 12.689937999999998 Z M 136.113609 146.74258 L 129.88607 139.531856 C 129.88607 139.531856 130.36837 133.74438 124.33980499999998 134.46783 C 118.31111799999998 135.191249 111.31795399999999 139.77300599999998 111.07674299999998 143.390163 C 110.83565399999998 147.007351 112.28255399999998 147.73077 112.28255399999998 147.73077 C 112.28255399999998 147.73077 106.73616699999998 152.071316 107.45967799999998 155.44735300000002 C 108.18306699999998 158.82336 110.35335499999998 157.61767200000003 110.35335499999998 157.61767200000003 C 110.35335499999998 157.61767200000003 111.31795499999998 160.02911000000003 113.24715399999998 160.02911000000003 L 116.38204199999998 160.02911000000003 C 116.38204199999998 160.02911000000003 116.80782299999998 162.19942900000004 121.05611399999998 161.71712900000003 C 125.30440499999997 161.23482900000002 124.66255899999997 159.30920100000003 130.69112399999997 156.41549300000003 C 136.71981099999996 153.52172500000003 136.15584599999997 154.723934 136.15584599999997 154.723934 L 136.65096299999996 153.94009000000003 C 138.07564599999995 151.68420000000003 137.85750599999997 148.76189800000003 136.11360899999997 146.74258000000003 Z" stroke-linecap="round" />
</g>
		<g transform="matrix(1 0 0 1 20.86488850377806 -67.32303617985505)" id="path-10"  >
<path style="stroke: none; stroke-width: 0; stroke-dasharray: none; stroke-linecap: butt; stroke-dashoffset: 0; stroke-linejoin: miter; stroke-miterlimit: 4; fill: rgb(201,153,111); fill-rule: nonzero; opacity: 1;"  paint-order="stroke"  transform=" translate(-121.90968949999998, -60.44878187402151)" d="M 110.112266 49.102749 L 114.317222 56.497677 C 116.105186 59.642086000000006 119.048667 61.965634 122.5223 62.974728000000006 L 133.707114 66.223996 L 132.97481399999998 69.787412 C 132.97481399999998 69.787412 132.22408199999998 74.374296 123.06062899999998 69.680845 C 113.89717599999997 64.98739400000001 110.11226499999998 49.102751000000005 110.11226499999998 49.102751000000005 Z" stroke-linecap="round" />
</g>
		<g transform="matrix(1 0 0 1 21.466643928495095 -96.60330199999999)" id="path-09"  >
<path style="stroke: none; stroke-width: 0; stroke-dasharray: none; stroke-linecap: butt; stroke-dashoffset: 0; stroke-linejoin: miter; stroke-miterlimit: 4; fill: rgb(41,49,54); fill-rule: nonzero; opacity: 1;"  paint-order="stroke"  transform=" translate(-122.51144492471701, -31.16851605387658)" d="M 121.056358 17.510799 C 121.895103 17.612606 117.877891 31.151912 111.799522 31.151912 C 108.024864 31.151912 107.800499 33.986171 107.800499 33.986171 L 108.597496 41.024318 L 106.04097700000001 41.024318 C 106.04097700000001 41.024318 101.81209500000001 27.131252000000003 98.04317400000001 30.867 C 94.27413100000001 34.602748 98.20308600000001 44.383418 102.04207500000001 45.183193 C 105.88106400000001 45.982998 107.00069300000001 45.183193 107.00069300000001 45.183193 L 110.31502400000001 62.33703200000001 C 110.31502400000001 62.33703200000001 108.120444 54.94060900000001 103.16170400000001 49.18215500000001 C 98.20308600000001 43.423671000000006 91.85408700000002 39.10479300000001 94.22884300000001 26.468135000000007 C 96.60347700000001 13.831447000000008 105.72103100000001 11.752010000000007 105.72103100000001 11.752010000000007 C 105.72103100000001 11.752010000000007 108.760338 0.8749040000000079 119.95735900000001 0.07510000000000794 C 131.15438 -0.724703999999992 147.083458 4.873867000000008 150.34932700000002 16.39083500000001 C 153.61507400000002 27.90780300000001 147.489586 35.59866000000001 147.489586 35.59866000000001 C 146.18367800000001 26.94805600000001 140.431847 29.34740900000001 136.273033 24.38873000000001 C 132.114097 19.43005100000001 136.889366 15.71371200000001 130.354576 13.67156700000001 C 125.23592400000001 12.07198800000001 121.056358 17.51080000000001 121.056358 17.51080000000001 Z" stroke-linecap="round" />
</g>
		<g transform="matrix(1 0 0 1 -45.866448853124886 -5.942109053876557)" id="path-08"  >
<path style="stroke: none; stroke-width: 0; stroke-dasharray: none; stroke-linecap: butt; stroke-dashoffset: 0; stroke-linejoin: miter; stroke-miterlimit: 4; fill: rgb(239,235,217); fill-rule: nonzero; opacity: 1;"  paint-order="stroke"  transform=" translate(-55.17835214309703, -121.82970900000001)" d="M 79.830528 90.883572 C 79.830528 90.883572 68.770714 103.006802 54.520590999999996 118.32037 C 40.270469 133.633908 33.889854 163.622952 33.889854 163.622952 C 33.889854 163.622952 29.19625 146.47256099999998 30.897789 127.543301 C 32.599205 108.614071 48.990685 95.137326 48.990685 95.137326 L 52.962731 84.07876300000001 L 59.635459999999995 80.036466 L 76.020836 80.036466 L 79.830528 90.883573 Z" stroke-linecap="round" />
</g>
		<g transform="matrix(1 0 0 1 -57.16794799622192 2.66595244612342)" id="path-07"  >
<path style="stroke: none; stroke-width: 0; stroke-dasharray: none; stroke-linecap: butt; stroke-dashoffset: 0; stroke-linejoin: miter; stroke-miterlimit: 4; fill: rgb(158,77,77); fill-rule: nonzero; opacity: 1;"  paint-order="stroke"  transform=" translate(-43.876853000000004, -130.4377705)" d="M 49.416099 99.178433 L 48.827964 106.203091 C 48.827964 106.203091 30.897788000000002 130.437741 30.897788000000002 145.03612900000002 C 30.897788000000002 159.63451700000005 33.881309 167.238674 33.881309 167.238674 C 33.881309 167.238674 42.759483 163.622951 41.623252 149.585567 C 40.487144 135.548122 50.904868 107.047908 50.904868 107.047908 L 56.855918 101.73067800000001 L 54.520591 93.63686700000001 L 49.416099 99.17843200000002 Z" stroke-linecap="round" />
</g>
		<g transform="matrix(1 0 0 1 -46.117916774351706 44.41219744612347)" id="path-06"  >
<path style="stroke: none; stroke-width: 0; stroke-dasharray: none; stroke-linecap: butt; stroke-dashoffset: 0; stroke-linejoin: miter; stroke-miterlimit: 4; fill: rgb(80,94,105); fill-rule: nonzero; opacity: 1;"  paint-order="stroke"  transform=" translate(-54.92688422187022, -172.18401550000004)" d="M 109.710288 127.764278 C 109.542319 128.95598900000002 109.206748 130.39944 108.635947 132.144954 C 107.74629900000001 134.830531 106.303061 138.220912 104.070639 142.50088100000002 C 100.680136 148.92931700000003 97.457724 156.230587 94.251791 163.22964100000002 C 88.226278 176.33819200000002 82.267782 188.35577 75.52034599999999 191.427364 C 74.74837299999999 191.779842 73.791586 192.014766 72.68391999999999 192.18267400000002 C 72.76790399999999 192.619075 72.90218199999998 192.75329200000002 72.90218199999998 192.75329200000002 L 83.19099999999997 211.33355300000002 C 89.43465199999997 222.62951200000003 92.20418399999997 235.57018600000004 90.89497899999998 248.41027400000002 C 90.87813299999998 248.57806000000002 90.87813299999998 248.729183 90.84468599999998 248.89696800000002 C 90.71028699999998 250.20623300000003 90.50887099999998 251.75036200000002 90.29073099999998 253.47906 L 59.17244499999998 232.8175 L 59.00459799999998 232.716853 L 36.17793799999998 217.560603 L 33.34151199999998 215.680781 L 11.26985699999998 201.027949 L 12.49507699999998 184.948603 L 12.47847499999998 184.948603 C 9.59138999999998 185.082819 6.35213199999998 184.66320299999998 3.062458999999979 183.085566 C 2.961628999999979 183.051936 2.860798999999979 183.001582 2.760212999999979 182.951289 C 1.820393999999979 182.481257 0.7294509999999788 180.702082 0.259358999999979 179.090876 C -0.009196000000020965 178.218073 0.024373999999979024 177.345209 0.05794299999997901 176.959223 L 0.07478899999997901 176.774653 C -0.344767000000021 170.916926 1.048421999999979 161.954005 3.0624599999999793 152.638697 C 7.006795999999979 134.326899 13.38472599999998 114.68929500000002 13.38472599999998 114.68929500000002 L 50.51192299999998 90.88897200000002 L 50.49507699999998 90.93938700000002 L 50.36067799999998 91.29189600000002 L 48.96761199999998 95.13546300000002 L 48.93404299999998 95.16906300000002 C 48.413778999999984 95.97469700000002 35.69112299999998 115.66271500000002 33.861654999999985 130.43291800000003 C 33.74434499999998 131.35616600000003 33.64351499999999 132.26247700000002 33.559530999999986 133.15209500000003 L 33.559530999999986 133.18560300000004 C 32.87154299999999 140.52035000000004 32.98885199999999 147.06627900000004 33.257528999999984 151.61489400000005 L 35.01997999999998 152.45409700000005 C 36.043539999999986 148.49291500000004 37.97395899999998 142.29949500000004 41.61604899999998 133.37020400000006 C 42.38814399999998 131.49035200000006 43.412069999999986 129.56020600000005 44.65413499999998 127.56286100000005 L 44.65413499999998 127.54607600000006 C 50.61250899999998 117.87826000000005 61.33772899999998 107.22024000000006 69.37752399999998 99.90218600000006 C 70.41792899999999 98.94555100000005 71.42513099999998 98.05593400000005 72.34834899999998 97.23351500000005 C 76.49397899999998 93.57454900000005 79.44807999999999 91.19118700000006 79.80049699999998 90.92257100000005 L 79.83406599999998 90.88897100000004 C 79.83406599999998 90.88897100000004 80.43831399999998 91.49328000000004 81.46211799999998 92.53392900000004 C 86.69881199999998 97.85451600000005 103.16414399999998 114.73958700000004 108.18269899999997 121.83934900000004 C 108.30025299999997 122.02404100000004 110.41512099999997 122.79607500000004 109.71028699999997 127.76427600000004 Z" stroke-linecap="round" />
</g>
		<g transform="matrix(1 0 0 1 -49.967714789534966 29.172086446123423)" id="path-05"  >
<path style="stroke: none; stroke-width: 0; stroke-dasharray: none; stroke-linecap: butt; stroke-dashoffset: 0; stroke-linejoin: miter; stroke-miterlimit: 4; fill: rgb(17,29,38); fill-rule: nonzero; opacity: 1;"  paint-order="stroke"  transform=" translate(-51.07708620668696, -156.9439045)" d="M 80.841148 136.743862 C 77.769615 140.72173700000002 75.235191 145.20324300000001 73.271324 149.24822600000002 C 70.06551300000001 155.81097000000003 68.37020100000001 161.165096 68.37020100000001 161.165096 L 70.28389700000001 162.625423 C 70.28389700000001 162.625423 72.61678300000001 157.371913 76.04085500000001 150.75887600000001 C 77.836876 147.23409600000002 79.96834500000001 143.30660500000002 82.200523 139.61404000000002 C 82.93917 138.37200500000003 83.694542 137.16347800000003 84.449791 136.00533600000003 C 91.750938 124.79342200000002 102.14058700000001 125.93471800000003 102.14058700000001 125.93471800000003 C 93.513146 124.15560400000003 86.32967400000001 129.62731400000004 80.84114900000002 136.74386100000004 Z M 25.519737 114.924191 L 33.492271 108.29436899999999 L 24.294517000000003 114.152188 C 24.294517000000003 114.152188 20.383872000000004 123.14858699999999 24.294517000000003 138.6405 C 24.932579000000004 141.19177 25.553306000000003 143.474423 26.140953000000003 145.471768 L 27.282188000000005 146.143185 C 26.241539000000007 141.72887799999998 25.217735000000005 136.374661 24.496055000000005 130.432919 C 22.716880000000007 116.418026 25.519737000000006 114.924191 25.519737000000006 114.924191 Z M 78.340293 111.013516 L 79.565513 106.498532 L 79.88448299999999 105.323605 L 82.31819899999999 96.327206 L 79.07894099999999 105.02148100000001 L 78.72627999999999 105.99490000000002 L 76.275596 112.59124400000002 L 82.31819899999999 115.12560700000002 C 82.31819899999999 115.12560700000002 79.615928 118.18035600000002 74.479942 122.69537000000001 C 70.33406799999999 126.35433600000002 64.576988 130.970028 57.393271999999996 135.703244 C 50.226524 140.436459 45.123985 145.79067700000002 41.666464999999995 150.30566100000001 C 40.89449199999999 151.31268000000003 40.206016 152.269406 39.602011999999995 153.15902400000002 L 40.525107999999996 153.696133 C 40.911215999999996 153.242916 41.297324999999994 152.772915 41.716879999999996 152.28619 C 45.023399 148.442623 49.320029 143.961117 53.85189 140.788967 C 62.797934999999995 134.52831600000002 69.948081 128.92239 75.252036 124.508114 C 82.754599 118.281063 86.58150400000001 114.420681 86.58150400000001 114.420681 L 78.340293 111.013515 Z M 37.18502 174.45837 C 36.614341 174.089046 36.043541000000005 173.73669 35.456382000000005 173.367367 C 24.210654000000005 166.435391 15.012656000000003 160.174862 14.979331000000006 160.158077 C 14.979331000000006 160.158077 13.049033000000005 159.134243 12.293906000000005 153.69613199999998 C 11.068686000000005 144.96825699999997 13.367881000000004 143.81011499999997 16.070273000000004 142.954097 L 16.221274000000005 142.92049699999998 C 15.751303000000005 132.648463 20.551596000000004 127.83138599999998 20.551596000000004 127.83138599999998 L 16.221274000000005 119.79171299999999 L 18.957236000000005 127.646785 C 18.957236000000005 127.646785 15.566733000000006 129.778407 15.063071000000004 142.752681 C 13.284018000000005 142.819789 11.286582000000005 144.431117 10.749594000000005 146.143184 C 9.138144000000006 151.178462 10.732870000000005 156.129787 11.974814000000006 158.916042 C 3.381308000000006 159.01675 4.304526000000005 171.957515 4.304526000000005 171.957515 C 4.304526000000005 171.957515 4.891928000000005 167.308223 7.224936000000005 163.615657 C 9.524374000000005 159.939876 13.183432000000005 161.148402 13.183432000000005 161.148402 C 13.183432000000005 161.148402 24.126913000000005 168.21453400000001 35.52339800000001 175.263972 L 37.369589000000005 176.422114 C 38.191977 176.92565399999998 39.01436400000001 177.41246999999998 39.82002800000001 177.93273399999998 C 39.216024000000004 178.03344199999998 38.42696200000001 178.201228 37.52083400000001 178.35235099999997 L 35.607138000000006 178.72155299999997 C 29.951010000000007 179.81261699999996 20.954428000000007 181.44060799999997 12.444907000000008 182.69945799999996 C 7.812339000000008 183.37084499999997 4.891928000000008 182.91765899999996 3.062461000000008 181.99456299999997 C -0.076455 180.416805 0.00753 177.513119 0.07479 176.774654 L 0.057943999999999996 176.959224 C -0.05961000000000001 177.84875 -0.09317900000000001 180.28252700000002 1.971396 183.16949 C 2.2736419999999997 183.589046 2.642905 183.941463 3.0624599999999997 184.226863 C 6.301717999999999 186.442439 12.478476 184.94860400000002 12.478476 184.94860400000002 L 12.495078000000001 184.94860400000002 C 13.099448 184.86468100000002 26.073691000000004 183.270137 35.640708000000004 182.24633300000002 C 35.640708000000004 186.27453100000002 35.523398 190.873408 35.254722 196.04302500000003 C 34.851890000000004 204.30089900000002 34.180747000000004 210.69573500000004 33.341514000000004 215.68078100000002 L 36.17794000000001 217.56060300000001 C 37.78914600000001 202.488276 38.057823000000006 190.856624 37.70516200000001 182.011348 C 42.08614300000001 181.574947 45.32540100000001 181.306331 45.660973000000006 181.440608 L 45.67781900000001 181.440608 C 49.924279000000006 183.975093 53.76790700000001 186.173823 56.52059200000001 187.617244 C 68.35347800000001 193.79388 72.66719800000001 192.165828 72.66719800000001 192.165828 C 66.28902400000001 191.561641 50.612510000000015 182.699458 37.185020000000016 174.45837 Z" stroke-linecap="round" />
</g>
		<g transform="matrix(1 0 0 1 -38.296293992717 -30.605847964695855)" id="path-04"  >
<path style="stroke: none; stroke-width: 0; stroke-dasharray: none; stroke-linecap: butt; stroke-dashoffset: 0; stroke-linejoin: miter; stroke-miterlimit: 4; fill: rgb(222,171,131); fill-rule: nonzero; opacity: 1;"  paint-order="stroke"  transform=" translate(-62.748507003504926, -97.16597008918072)" d="M 40.382285 62.793301 C 39.481894000000004 55.65823 41.623374000000005 53.044917999999996 40.463462 47.900174 C 38.231773 38.001248000000004 45.917197 28.149289 45.917197 28.149289 C 71.955161 14.352535999999999 85.440024 41.634152 85.440024 41.634152 L 85.440024 54.031003 L 77.908408 67.982877 C 77.908408 67.982877 77.24226999999999 68.716184 76.02083499999999 69.80474600000001 L 76.02083499999999 80.03649600000001 L 54.61800299999999 92.664578 C 54.61800299999999 92.664578 52.83565399999999 84.597256 52.962729999999986 84.078793 C 53.140585999999985 83.3905 52.982382999999984 85.88930900000001 52.93782799999999 79.86877100000001 C 45.32588999999999 80.036465 42.94979099999999 83.14111000000001 40.382285999999986 62.793301000000014 Z M 58.806236 163.719601 L 59.207481 164.354794 C 59.207481 164.354794 58.75045 163.38061199999999 63.635826 165.725522 C 68.52108 168.070493 68.00106 169.63104 71.443687 170.02178700000002 C 74.886314 170.412595 75.231285 168.65386700000002 75.231285 168.65386700000002 L 77.77169 168.65386700000002 C 79.33504400000001 168.65386700000002 80.11666100000001 166.69973500000003 80.11666100000001 166.69973500000003 C 80.11666100000001 166.69973500000003 81.87532800000001 167.67681600000003 82.46163200000001 164.94103700000002 C 83.047936 162.20522800000003 78.55342900000001 158.68780200000003 78.55342900000001 158.68780200000003 C 78.55342900000001 158.68780200000003 79.725914 158.10159000000004 79.53048000000001 155.17037600000003 C 79.33504600000002 152.23916200000002 73.66805300000001 148.52630300000004 68.782677 147.94009000000003 C 63.897301000000006 147.35381700000002 64.28817000000001 152.04375800000003 64.28817000000001 152.04375800000003 L 59.24166100000001 157.88702000000004 C 57.82845300000001 159.52340300000003 57.65169500000001 161.89150600000005 58.806236000000006 163.71960100000004 Z" stroke-linecap="round" />
</g>
		<g transform="matrix(1 0 0 1 -32.792660171913255 -74.69069382109335)" id="path-03"  >
<path style="stroke: none; stroke-width: 0; stroke-dasharray: none; stroke-linecap: butt; stroke-dashoffset: 0; stroke-linejoin: miter; stroke-miterlimit: 4; fill: rgb(125,90,79); fill-rule: nonzero; opacity: 1;"  paint-order="stroke"  transform=" translate(-68.25214082430867, -53.081124232783225)" d="M 80.695518 22.807491 C 82.35628500000001 23.548916 83.895713 24.551357 85.204795 25.828944999999997 C 87.1025 27.680873999999996 88.459922 30.018031999999998 89.558677 32.431179 C 92.188316 38.206203 93.403159 44.601925 93.179405 50.938229 C 93.067589 54.106533 92.596397 57.263241 91.76168 60.322171 C 91.360923 61.791135 90.95882399999999 63.294705 90.480186 64.724728 C 90.265342 65.366635 89.051719 68.660397 88.360679 68.788052 C 90.724204 68.35143699999999 92.889488 70.265042 94.13619200000001 72.31991199999999 C 94.865318 73.52175499999998 95.438804 75.00200999999998 94.91817400000001 76.307797 C 94.68660700000001 76.88854699999999 94.255088 77.373623 93.755943 77.750119 C 92.19283300000001 78.929135 89.890587 79.018002 88.241172 77.963071 C 89.465781 79.879514 89.51705100000001 82.608792 88.017539 84.318753 C 86.617026 85.91586 84.159751 86.311642 82.154136 85.611783 C 80.14864299999999 84.911923 78.573814 83.284543 77.51265699999999 81.44436400000001 C 75.57576699999998 78.085294 75.627281 74.398099 74.472252 70.79708600000001 C 73.67733 68.31863100000001 72.882408 65.84017700000001 72.087364 63.36172200000001 C 72.087364 63.36172200000001 73.931602 64.73940800000001 77.75325799999999 61.51760600000001 C 81.57491299999998 58.29635400000001 81.57491299999998 50.343320000000006 76.53060199999999 49.565549000000004 C 71.99959599999998 48.898923 70.17708599999999 56.919248 69.82234999999999 58.629941 C 69.95479599999999 57.740964000000005 70.31050899999998 55.008389 70.55464999999998 51.409665000000004 C 70.84432299999997 47.299436 66.11141299999998 43.545010000000005 65.40084099999999 42.989621 C 65.84566499999998 43.189206 67.75594399999999 44.011472 70.57735499999998 44.144894 C 74.13216499999999 44.322781 76.37557299999999 43.14526 76.37557299999999 43.14526 C 76.37557299999999 43.14526 73.31002099999999 44.055935 68.24507999999999 43.456051 C 63.200890999999984 42.83392 60.891441999999984 38.390682000000005 60.891441999999984 38.390682000000005 C 60.891441999999984 38.390682000000005 63.24654499999998 39.10174200000001 66.31209599999998 38.70202200000001 C 68.11177899999998 38.50188800000001 69.82247199999998 37.94646800000001 70.26607499999999 37.79079800000001 C 69.84407799999998 37.87975700000001 67.93379999999999 38.19054800000001 63.068564999999985 37.92422100000001 C 57.402793999999986 37.61346100000001 54.78194399999998 34.36996100000001 54.78194399999998 34.36996100000001 C 54.78194399999998 34.36996100000001 58.91390199999998 34.10308500000001 63.668418999999986 32.88110000000001 C 67.35567499999999 31.92596100000001 69.66622199999999 30.12627800000001 70.51021599999999 29.348507000000012 C 69.44380999999998 30.19298900000001 65.89009899999999 32.414639000000015 58.29122199999998 32.414639000000015 C 41.562950999999984 32.414639000000015 41.47396099999999 39.967953000000016 41.47396099999999 40.123593000000014 C 40.11287699999999 24.975033000000014 54.66048399999999 18.879025000000013 67.64107499999999 20.461728000000015 C 69.16744199999998 20.647855000000014 70.66939499999998 21.066312000000014 72.17818399999999 21.183988000000014 C 73.77803799999998 21.308774000000014 75.32417999999998 21.268125000000012 76.91316899999998 21.597043000000014 C 78.21040999999998 21.865537000000014 79.48518999999999 22.267209000000015 80.69551799999998 22.807492000000014 Z" stroke-linecap="round" />
</g>
		<g transform="matrix(1 0 0 1 75.30776050377808 97.84524344612343)" id="path-02"  >
<path style="stroke: none; stroke-width: 0; stroke-dasharray: none; stroke-linecap: butt; stroke-dashoffset: 0; stroke-linejoin: miter; stroke-miterlimit: 4; fill: rgb(255,255,255); fill-rule: nonzero; opacity: 1;"  paint-order="stroke"  transform=" translate(-176.3525615, -225.6170615)" d="M 175.974937 225.633846 L 176.730186 225.633846 L 176.730186 225.600277 C 176.64620200000002 225.617062 176.377769 225.633846 175.974937 225.633846 Z" stroke-linecap="round" />
</g>
		<g transform="matrix(1 0 0 1 -40.390787496221925 -52.59649288268595)" id="path-01"  >
<path style="stroke: none; stroke-width: 0; stroke-dasharray: none; stroke-linecap: butt; stroke-dashoffset: 0; stroke-linejoin: miter; stroke-miterlimit: 4; fill: rgb(194,140,97); fill-rule: nonzero; opacity: 1;"  paint-order="stroke"  transform=" translate(-60.6540135, -75.17532517119062)" d="M 52.937827 79.868771 C 61.190512999999996 78.16711099999999 67.510947 71.961514 68.3702 68.43563499999999 C 68.3702 68.43563499999999 68.061118 77.411526 64.011191 79.72744399999999 C 55.550498 84.56563999999999 52.937827 79.868771 52.937827 79.868771 Z" stroke-linecap="round" />
</g>
</g>
</g>
<g transform="matrix(1.9211538461538462 0 0 1.9211538461538462 639.785653877428 752.042658319134)" id="tagline-8a3c9af8-6e48-4295-9dfd-df5e5c8a5e11-logo"  >
<g style=""  paint-order="stroke"   >
		<g transform="matrix(1 0 0 1 0 0)" id="tagline-8a3c9af8-6e48-4295-9dfd-df5e5c8a5e11-logo-path-0"  >
<path style="stroke: none; stroke-width: 0; stroke-dasharray: none; stroke-linecap: butt; stroke-dashoffset: 0; stroke-linejoin: miter; stroke-miterlimit: 4; fill: rgb(60,60,60); fill-rule: nonzero; opacity: 1;"  paint-order="stroke"  transform=" translate(-101.97, 22.5)" d="M 17.82 -45 L 17.82 -7.47 L 3.78 -7.47 L 3.78 0 L 26.28 0 L 26.28 -45 Z M 83.25 -45 L 83.25 0 L 113.22 0 L 113.22 -18.72 L 109.44 -22.5 L 113.22 -26.28 L 113.22 -45 Z M 91.62 -37.53 L 104.85 -37.53 L 104.85 -26.28 L 91.62 -26.28 Z M 91.62 -18.72 L 104.85 -18.72 L 104.85 -7.47 L 91.62 -7.47 Z M 170.19 -45 L 170.19 0 L 178.56 0 L 178.56 -18.72 L 200.16 -18.72 L 200.16 -45 Z M 178.56 -37.53 L 191.79 -37.53 L 191.79 -26.28 L 178.56 -26.28 Z" stroke-linecap="round" />
</g>
</g>
</g>
</svg>